<svg xmlns="http://www.w3.org/2000/svg" xmlns:xlink="http://www.w3.org/1999/xlink" width="540.25" height="421.76" viewBox="0 0 540.25 421.76">
  <defs>
    <linearGradient id="linear-gradient" x1="0.5" x2="0.5" y2="1" gradientUnits="objectBoundingBox">
      <stop offset="0" stop-color="#6f86d6"/>
      <stop offset="1" stop-color="#5f76c7"/>
    </linearGradient>
  </defs>
  <g id="logo_img" transform="translate(0)">
    <g id="Layer_1" data-name="Layer 1">
      <path id="Path_1" data-name="Path 1" d="M345.13,49l-10.88,80.13H401.2s65.63,1.72,65.63,60.26-66.27,71.16-66.27,71.16l-87.77,21.94-6.51,46.13,34.38-5,102.59,98.14h97l-117-110.29s111.3-9.19,111.3-120.06c0-61.8-40.24-99-75.86-119.77A172.468,172.468,0,0,0,372.58,49Z" fill="#606161"/>
    </g>
    <g id="Layer_2" data-name="Layer 2">
      <path id="Path_4" data-name="Path 4" d="M91.83,194.73s138.48,32.15,233.72-57.15L271.37,120.1S222.47,192.12,91.83,194.73Z" fill="#d3d3d3"/>
      <path id="Path_5" data-name="Path 5" d="M91.83,194.73S252.64,185.05,284.89,83l-46.61-3S211.37,171.71,91.83,194.73Z" fill="#d8d8d8"/>
      <path id="Path_6" data-name="Path 6" d="M91.83,194.73s136.25-24.5,155.7-164L200.74,48.86S193.36,140.4,91.83,194.73Z" fill="#e0e0e0"/>
      <path id="Path_7" data-name="Path 7" d="M91.83,194.73s118-59.85,102.71-187.35L150,24.92S186.07,102.92,91.83,194.73Z" fill="#e8e8e8"/>
      <path id="Path_8" data-name="Path 8" d="M91.83,194.73S198,94.84,127.72,0L91.62,24.6S143.87,107.22,91.83,194.73Z" fill="#f0efef"/>
    </g>
    <path id="Path_12" data-name="Path 12" d="M-786.57-249.2-616-246.08l-6.38,48.73S-639.45-195.18-649.6-193c-21,4.5-31.22,6.05-61.2,7.41-3.724.168-8.14.166-13.206.162C-759.72-185.45-827.771-185.472-914-125.2-914-125.2-880.95-246.15-786.57-249.2Zm37.821-40.05c-27.25-7.519-52.51-21.64-71.8-42.3a6.89,6.89,0,0,0-1.661-1.38l180.53,40.98A34.311,34.311,0,0,1-615.2-256.22l-.281,4.23ZM-867.29-472.46-854.69-526c93.521,87.019,32.521,192.92,32.521,192.92C-810.41-426.74-867.29-472.46-867.29-472.46Z" transform="translate(914 527.81)" fill="url(#linear-gradient)"/>
  </g>
</svg>
